<svg width="24" height="24" viewBox="0 0 24 24" fill="none" xmlns="http://www.w3.org/2000/svg">
<path d="M6.5 23V12.4378C6.5 11.263 6.5 10.6756 6.7695 10.1828C7.0379 9.68998 7.5318 9.37208 8.5207 8.73628L10.8109 7.26448C11.3884 6.89378 11.6766 6.70788 12 6.70788C12.3234 6.70788 12.6116 6.89378 13.1902 7.26448L15.4793 8.73628C16.4682 9.37208 16.9621 9.68998 17.2305 10.1828C17.5 10.6756 17.5 11.263 17.5 12.4378V23M12 13.1H12.0099M21.9 23V16.5782C21.9 14.0581 20.514 13.8535 17.5 13.1M2.1 23V16.5782C2.1 14.0581 3.486 13.8535 6.5 13.1M1 23H23M12 23V18.6M12 6.49998V4.28018M12 4.28018V2.06698C12 1.54558 12 1.28488 12.1606 1.12318C12.6666 0.613884 14.75 1.81728 15.542 2.30568C16.2108 2.71708 16.4 3.53988 16.4 4.28018H12Z" stroke="#870A0A" stroke-width="1.5" stroke-linecap="round" stroke-linejoin="round"/>
</svg>
