<svg width="13" height="13" viewBox="0 0 13 13" fill="none" xmlns="http://www.w3.org/2000/svg">
<path d="M11.3333 7.16667V11.1667C11.3333 11.5203 11.1928 11.8594 10.9428 12.1095C10.6927 12.3595 10.3536 12.5 9.99996 12.5H1.99996C1.64634 12.5 1.3072 12.3595 1.05715 12.1095C0.807102 11.8594 0.666626 11.5203 0.666626 11.1667V3.16667C0.666626 2.81304 0.807102 2.47391 1.05715 2.22386C1.3072 1.97381 1.64634 1.83333 1.99996 1.83333H5.99996V3.16667H1.99996V11.1667H9.99996V7.16667H11.3333ZM7.33329 0.5V1.83333H10.3906L5.19529 7.02867L6.13796 7.97133L11.3333 2.776V5.83333H12.6666V0.5H7.33329Z" fill="white"/>
</svg>
