<svg width="12" height="13" viewBox="0 0 12 13" fill="none" xmlns="http://www.w3.org/2000/svg">
<path d="M2.41321 5.69333C3.37321 7.58 4.91988 9.12 6.80654 10.0867L8.27321 8.62C8.45321 8.44 8.71988 8.38 8.95321 8.46C9.69988 8.70667 10.5065 8.84 11.3332 8.84C11.6999 8.84 11.9999 9.14 11.9999 9.50667V11.8333C11.9999 12.2 11.6999 12.5 11.3332 12.5C5.07321 12.5 -0.00012207 7.42667 -0.00012207 1.16667C-0.00012207 0.8 0.299878 0.5 0.666545 0.5H2.99988C3.36654 0.5 3.66654 0.8 3.66654 1.16667C3.66654 2 3.79988 2.8 4.04654 3.54667C4.11988 3.78 4.06654 4.04 3.87988 4.22667L2.41321 5.69333Z" fill="white"/>
</svg>
