<svg width="22" height="22" viewBox="0 0 22 22" fill="none" xmlns="http://www.w3.org/2000/svg">
<path d="M11 1.57143C5.79308 1.57143 1.57144 5.79307 1.57144 11C1.57144 12.7011 2.02087 14.2945 2.80737 15.6711C2.85935 15.7619 2.89267 15.8622 2.90535 15.9661C2.91803 16.07 2.90983 16.1754 2.88122 16.2761L1.75058 20.251L5.72708 19.1196C5.82776 19.091 5.93314 19.0828 6.03703 19.0954C6.14093 19.1081 6.24124 19.1414 6.33208 19.1934C7.75364 20.0054 9.36292 20.4312 11 20.4286C16.2077 20.4286 20.4286 16.2069 20.4286 11C20.4286 5.79307 16.2077 1.57143 11 1.57143ZM9.13321e-06 11C9.13321e-06 4.92486 4.92487 0 11 0C17.0752 0 22 4.92486 22 11C22 17.0751 17.0752 22 11 22C9.13944 22 7.38415 21.5372 5.84572 20.7201L1.50229 21.9552C1.30043 22.0124 1.08695 22.0147 0.883899 21.9619C0.680851 21.909 0.495598 21.8029 0.347273 21.6545C0.198949 21.5061 0.0929317 21.3208 0.0401715 21.1177C-0.0125887 20.9146 -0.010179 20.7011 0.0471519 20.4993L1.28229 16.1566C0.438075 14.5691 -0.00231266 12.7981 9.13321e-06 11ZM6.28572 8.64286C6.28572 8.43447 6.3685 8.23462 6.51585 8.08727C6.6632 7.93992 6.86305 7.85714 7.07144 7.85714H14.9286C15.137 7.85714 15.3368 7.93992 15.4842 8.08727C15.6315 8.23462 15.7143 8.43447 15.7143 8.64286C15.7143 8.85124 15.6315 9.05109 15.4842 9.19844C15.3368 9.34579 15.137 9.42857 14.9286 9.42857H7.07144C6.86305 9.42857 6.6632 9.34579 6.51585 9.19844C6.3685 9.05109 6.28572 8.85124 6.28572 8.64286ZM7.07144 12.5714C6.86305 12.5714 6.6632 12.6542 6.51585 12.8016C6.3685 12.9489 6.28572 13.1488 6.28572 13.3571C6.28572 13.5655 6.3685 13.7654 6.51585 13.9127C6.6632 14.0601 6.86305 14.1429 7.07144 14.1429H11.7857C11.9941 14.1429 12.194 14.0601 12.3413 13.9127C12.4887 13.7654 12.5714 13.5655 12.5714 13.3571C12.5714 13.1488 12.4887 12.9489 12.3413 12.8016C12.194 12.6542 11.9941 12.5714 11.7857 12.5714H7.07144Z" fill="#870A0A"/>
</svg>
