<svg width="28" height="19" viewBox="0 0 28 19" fill="none" xmlns="http://www.w3.org/2000/svg">
<path d="M1.55556 18.6667C1.11482 18.6667 0.745635 18.5173 0.448005 18.2187C0.150376 17.92 0.0010424 17.5508 5.36398e-06 17.1111C-0.00103167 16.6714 0.148302 16.3022 0.448005 16.0036C0.747709 15.7049 1.11689 15.5556 1.55556 15.5556H26.4444C26.8852 15.5556 27.2549 15.7049 27.5535 16.0036C27.8522 16.3022 28.001 16.6714 28 17.1111C27.999 17.5508 27.8496 17.9205 27.552 18.2202C27.2544 18.5199 26.8852 18.6687 26.4444 18.6667H1.55556ZM1.55556 10.8889C1.11482 10.8889 0.745635 10.7396 0.448005 10.4409C0.150376 10.1422 0.0010424 9.77303 5.36398e-06 9.33333C-0.00103167 8.89363 0.148302 8.52444 0.448005 8.22578C0.747709 7.92711 1.11689 7.77778 1.55556 7.77778H26.4444C26.8852 7.77778 27.2549 7.92711 27.5535 8.22578C27.8522 8.52444 28.001 8.89363 28 9.33333C27.999 9.77303 27.8496 10.1427 27.552 10.4424C27.2544 10.7421 26.8852 10.891 26.4444 10.8889H1.55556ZM1.55556 3.11111C1.11482 3.11111 0.745635 2.96178 0.448005 2.66311C0.150376 2.36444 0.0010424 1.99526 5.36398e-06 1.55556C-0.00103167 1.11585 0.148302 0.746667 0.448005 0.448C0.747709 0.149333 1.11689 0 1.55556 0H26.4444C26.8852 0 27.2549 0.149333 27.5535 0.448C27.8522 0.746667 28.001 1.11585 28 1.55556C27.999 1.99526 27.8496 2.36496 27.552 2.66467C27.2544 2.96437 26.8852 3.11318 26.4444 3.11111H1.55556Z" fill="white"/>
</svg>
