<svg width="19" height="19" viewBox="0 0 19 19" fill="none" xmlns="http://www.w3.org/2000/svg">
<path d="M9.62221 13.0554C10.5652 13.0554 11.4696 12.6808 12.1364 12.014C12.8032 11.3473 13.1778 10.4429 13.1778 9.49989C13.1778 8.5569 12.8032 7.65253 12.1364 6.98573C11.4696 6.31894 10.5652 5.94434 9.62221 5.94434C8.67921 5.94434 7.77484 6.31894 7.10805 6.98573C6.44125 7.65253 6.06665 8.5569 6.06665 9.49989C6.06665 10.4429 6.44125 11.3473 7.10805 12.014C7.77484 12.6808 8.67921 13.0554 9.62221 13.0554Z" stroke="white" stroke-width="1.5" stroke-linecap="round" stroke-linejoin="round"/>
<path d="M1.62222 13.0556V5.94444C1.62222 4.7657 2.09048 3.63524 2.92397 2.80175C3.75747 1.96825 4.88793 1.5 6.06667 1.5H13.1778C14.3565 1.5 15.487 1.96825 16.3205 2.80175C17.154 3.63524 17.6222 4.7657 17.6222 5.94444V13.0556C17.6222 14.2343 17.154 15.3648 16.3205 16.1983C15.487 17.0317 14.3565 17.5 13.1778 17.5H6.06667C4.88793 17.5 3.75747 17.0317 2.92397 16.1983C2.09048 15.3648 1.62222 14.2343 1.62222 13.0556Z" stroke="white" stroke-width="1.5"/>
<path d="M14.5111 4.62135L14.5211 4.61035" stroke="white" stroke-width="1.5" stroke-linecap="round" stroke-linejoin="round"/>
</svg>
