<svg width="22" height="26" viewBox="0 0 22 26" fill="none" xmlns="http://www.w3.org/2000/svg">
<path d="M8.27037 10.5106L8.3 10.4974V10.4649V3.73291C8.3 2.25261 9.5197 1.03291 11 1.03291C12.4803 1.03291 13.7 2.25261 13.7 3.73291V10.4649V10.4974L13.7296 10.5106L21.4351 13.949L21.4361 13.9494L21.95 14.1657V18.4592L13.7555 17.5487L13.7 17.5425V17.5984V19.2887V19.3154L13.7222 19.3303L16.0707 20.9042L16.0714 20.9047L16.45 21.1484V24.9554L15.4222 24.7389L15.4218 24.7388L11.0099 23.8506L11 23.8486L10.9901 23.8506L6.57913 24.7388L6.5787 24.7389L5.55 24.9554V21.1484L5.9277 20.9047L5.92842 20.9042L8.27784 19.3294L8.3 19.3145V19.2878V17.5975V17.5416L8.24448 17.5478L0.05 18.4583V14.1648L0.563896 13.9485L0.5639 13.9485L0.56487 13.9481L8.27037 10.5106ZM1.83885 16.5023L10.0333 15.5918V20.2642L9.65577 20.5061L9.65489 20.5067L7.30547 22.0834L7.28333 22.0982V22.1249V22.7831V22.8439L7.34299 22.8321L10.8373 22.1446L10.8374 22.145L10.8433 22.1431L11 22.0914L11.1557 22.143L11.1556 22.1434L11.1618 22.1446L14.657 22.8321L14.7167 22.8439V22.7831V22.1249V22.0983L14.6945 22.0834L12.3461 20.5058L12.3451 20.5052L11.9667 20.2633V15.5909L20.1611 16.5014L20.2167 16.5075V16.4517V15.3342V15.3018L20.187 15.2886L12.4815 11.8511L12.4815 11.8511L12.4806 11.8507L11.9667 11.6344V3.73291C11.9667 3.18646 11.5464 2.76624 11 2.76624C10.4536 2.76624 10.0333 3.18646 10.0333 3.73291V11.6353L9.51944 11.8516L9.51943 11.8516L9.51846 11.852L1.81296 15.2895L1.78333 15.3027V15.3352V16.4526V16.5084L1.83885 16.5023Z" fill="#870A0A" stroke="white" stroke-width="0.1"/>
</svg>
