<svg width="12" height="13" viewBox="0 0 12 13" fill="none" xmlns="http://www.w3.org/2000/svg">
<path d="M10.2511 2.22453C9.69821 1.6662 9.03969 1.22351 8.31395 0.922239C7.58822 0.62097 6.80978 0.467156 6.024 0.469759C2.73154 0.469759 0.0481192 3.15318 0.0481192 6.44564C0.0481192 7.50091 0.325506 8.52604 0.844099 9.43056L-0.00012207 12.5301L3.16571 11.6979C4.04008 12.1743 5.02299 12.4275 6.024 12.4275C9.31646 12.4275 11.9999 9.74413 11.9999 6.45167C11.9999 4.85368 11.3788 3.35217 10.2511 2.22453ZM6.024 11.4145C5.13154 11.4145 4.25716 11.1733 3.49133 10.721L3.31043 10.6125L1.42902 11.1069L1.92953 9.27378L1.80892 9.08684C1.31297 8.29512 1.04968 7.37987 1.04912 6.44564C1.04912 3.70795 3.28028 1.47679 6.01797 1.47679C7.3446 1.47679 8.59284 1.99539 9.52752 2.93609C9.9904 3.39671 10.3572 3.94466 10.6067 4.54815C10.8562 5.15164 10.9833 5.79865 10.9808 6.45167C10.9928 9.18936 8.76169 11.4145 6.024 11.4145ZM8.74963 7.69991C8.59887 7.62755 7.86319 7.26574 7.73053 7.21147C7.59184 7.16323 7.49535 7.13911 7.39284 7.28383C7.29033 7.43458 7.00691 7.77227 6.92249 7.86875C6.83807 7.97127 6.74762 7.98333 6.59686 7.90493C6.44611 7.83257 5.9637 7.66976 5.39686 7.16323C4.95063 6.76524 4.65515 6.27679 4.5647 6.12604C4.48028 5.97529 4.55264 5.89689 4.63103 5.8185C4.69736 5.75217 4.78179 5.64363 4.85415 5.55921C4.92651 5.47478 4.95666 5.40845 5.0049 5.31197C5.05314 5.20946 5.02902 5.12504 4.99284 5.05267C4.95666 4.98031 4.65515 4.24463 4.53455 3.94313C4.41395 3.65368 4.28731 3.68986 4.19686 3.68383H3.90741C3.8049 3.68383 3.64812 3.72001 3.50943 3.87076C3.37676 4.02152 2.99083 4.38333 2.99083 5.119C2.99083 5.85468 3.52752 6.56624 3.59988 6.66272C3.67224 6.76524 4.65515 8.27277 6.15063 8.918C6.50641 9.07478 6.7838 9.16524 7.00088 9.23157C7.35666 9.34614 7.68229 9.32805 7.94159 9.29187C8.23103 9.24966 8.82802 8.93006 8.94862 8.58031C9.07525 8.23056 9.07525 7.93509 9.03304 7.86875C8.99083 7.80242 8.90038 7.77227 8.74963 7.69991Z" fill="white"/>
</svg>
