<svg width="84" height="30" viewBox="0 0 84 30" fill="none" xmlns="http://www.w3.org/2000/svg">
<path d="M23.12 0.52L14.16 27.4C13.68 28.6267 12.8267 29.24 11.6 29.24C10.32 29.24 9.44 28.6267 8.96 27.4L0.12 0.52H5.88L11.6 19.08L17.32 0.52H23.12ZM32.1222 29H26.5622V0.52H32.1222V29ZM58.5497 0.52L49.5897 27.4C49.1097 28.6267 48.2564 29.24 47.0297 29.24C45.7497 29.24 44.8697 28.6267 44.3897 27.4L35.5497 0.52H41.3097L47.0297 19.08L52.7497 0.52H58.5497ZM83.5919 29H77.7919L76.1919 24.08H66.6319L65.0719 29H59.2719L68.3919 2.92C68.7919 2.01333 69.2319 1.38666 69.7119 1.04C70.2185 0.693332 70.8319 0.52 71.5519 0.52C72.2719 0.52 72.8452 0.679999 73.2719 0.999998C73.7252 1.32 74.1252 1.96 74.4719 2.92L83.5919 29ZM74.9119 19.4L71.5519 8.12L68.0319 19.4H74.9119Z" fill="white"/>
</svg>
